EXCLUSIVE DHAMAKA FROM Henry


Rating-8.5/10

Won 4 Oscars. Another 49 wins & 54 nominations 

Format : Matroska
File size : 536 MiB
Duration : 2h 31mn
Overall bit rate : 495 Kbps
Movie name : The Departed 2006 BluRay 480p Dual Audio - Henry Kharay
Encoded date : UTC 2010-12-14 07:11:16
Writing application : mkvmerge v4.2.0 ('No Talking') built on Jul 28 2010 18:38:23
Writing library : libebml v1.0.0 + libmatroska v1.0.0
-----------------------------------------------------------------------------------
Video
ID : 1
Format : AVC
Format/Info : Advanced Video Codec
Format profile : Main@L3.0
Format settings, CABAC : Yes
Format settings, ReFrames : 2 frames
Muxing mode : Container profile=Unknown@3.0
Codec ID : V_MPEG4/ISO/AVC
Duration : 2h 31mn
Bit rate : 405 Kbps
Nominal bit rate : 427 Kbps
Width : 912 pixels
Height : 400 pixels
Display aspect ratio : 2.40:1
Frame rate : 24.000 fps
Color space : YUV
Chroma subsampling : 4:2:0
Bit depth : 8 bits
Scan type : Progressive
Bits/(Pixel*Frame) : 0.046
Stream size : 439 MiB (82%)
Title : Ripped By Henry
-----------------------------------------------------------------------------------
Audio #1
ID : 2
Format : MPEG Audio
Format version : Version 1
Format profile : Layer 3
Mode : Joint stereo
Mode extension : MS Stereo
Codec ID : A_MPEG/L3
Codec ID/Hint : MP3
Duration : 2h 31mn
Bit rate mode : Constant
Bit rate : 48.0 Kbps
Channel(s) : 2 channels
Sampling rate : 48.0 KHz
Stream size : 52.0 MiB (10%)
Title : Henry

Audio #2
ID : 3
Format : MPEG Audio
Format version : Version 2
Format profile : Layer 3
Codec ID : A_MPEG/L3
Codec ID/Hint : MP3
Duration : 2h 31mn
Bit rate mode : Constant
Bit rate : 32.0 Kbps
Channel(s) : 1 channel
Sampling rate : 22.05 KHz
Stream size : 34.6 MiB (6%)
Title : Henry
Language : Hindi

Screens: 
http://img192.imageshack.us/img192/268/vlcsnap2010120910h51m10.png 
http://img510.imageshack.us/img510/701/vlcsnap2010120910h52m01.png 
http://img143.imageshack.us/img143/9034/vlcsnap2010120910h51m02.png 
http://img230.imageshack.us/img230/2175/vlcsnap2010120910h50m55.png 
http://img87.imageshack.us/img87/1490/vlcsnap2010120910h50m38.png 
http://img814.imageshack.us/img814/1348/76031391.png 
http://img233.imageshack.us/img233/7222/thedeparted191442202538.jpg 
http://img522.imageshack.us/img522/633/thedeparted108737202835.jpg 
http://img528.imageshack.us/img528/5021/vlcsnap2010120910h51m40.png

Sample Include In Torrent

Keep Seedin
Thnx